# xmcd CD database file generated by Grip 3.3.1
# 
# Track frame offsets:
#       150
#       11744
#       24796
#       36825
#       49713
#       60552
#       74146
#       86543
#       98461
#       110886
#       122874
#       135023
#       146579
#       157397
#       168699
#       181749
# 
# Disc length: 2590 seconds
# 
# Revision: 1
# Processed by: cddbd v1.5.2PL0 Copyright (c) Steve Scherf et al.
# Submitted via: Grip 3.3.1
# 
DISCID=da0a1c10
DTITLE=The Louvin Brothers - The Louvin Brothers
DYEAR=2008
DGENRE=Country
TTITLE0=The "Get Acquainted" Waltz
TTITLE1=Weapon Of Prayer
TTITLE2=They've Got The Church Outnumbered
TTITLE3=Do You Live What You Preach
TTITLE4=You'll Be Rewarded Over There
TTITLE5=I'll Live With God (To Die No More)
TTITLE6=I'm Changing The Words To My Love Song For You
TTITLE7=Robe Of White
TTITLE8=The Great Atomic Power
TTITLE9=Insured Beyond The Grave
TTITLE10=The Gospel Way
TTITLE11=The Sons And Daughters Of God
TTITLE12=Let Us Travel, Travel On
TTITLE13=Broad Minded
TTITLE14=The Family Who Prays (Never Shall Part)
TTITLE15=Swing Low, Sweet Chariot
EXTD=
EXTT0=
EXTT1=
EXTT2=
EXTT3=
EXTT4=
EXTT5=
EXTT6=
EXTT7=
EXTT8=
EXTT9=
EXTT10=
EXTT11=
EXTT12=
EXTT13=
EXTT14=
EXTT15=
PLAYORDER=
